<svg viewBox="0 0 29 29" fill="none" xmlns="http://www.w3.org/2000/svg">
<path fill-rule="evenodd" clip-rule="evenodd" d="M9.5 8H19.5C20.3284 8 21 8.67157 21 9.5V19.5C21 20.3284 20.3284 21 19.5 21H9.5C8.67157 21 8 20.3284 8 19.5V9.5C8 8.67157 8.67157 8 9.5 8ZM9.5 9C9.22386 9 9 9.22386 9 9.5V15.3636L10.6818 13.6818C10.7681 13.5955 10.8857 13.548 11.0077 13.5501C11.1298 13.5522 11.2457 13.6037 11.3289 13.6929L14.8735 17.4901L17.6818 14.6818C17.8575 14.5061 18.1425 14.5061 18.3182 14.6818L20 16.3636V9.5C20 9.22386 19.7761 9 19.5 9H9.5ZM9 19.5V16.6364L10.9889 14.6475L14.5311 18.4421L15.9411 20H9.5C9.22386 20 9 19.7761 9 19.5ZM19.5 20H17.155L15.4834 18.153L18 15.6364L20 17.6364V19.5C20 19.7761 19.7761 20 19.5 20ZM13.6492 12.5C13.6492 12.0301 14.0301 11.6492 14.5 11.6492C14.9699 11.6492 15.3508 12.0301 15.3508 12.5C15.3508 12.9699 14.9699 13.3508 14.5 13.3508C14.0301 13.3508 13.6492 12.9699 13.6492 12.5ZM14.5 10.7492C13.5331 10.7492 12.7492 11.5331 12.7492 12.5C12.7492 13.4669 13.5331 14.2508 14.5 14.2508C15.4669 14.2508 16.2508 13.4669 16.2508 12.5C16.2508 11.5331 15.4669 10.7492 14.5 10.7492Z" fill="#a1a1a1"/>
</svg>
