<svg viewBox="0 0 482 491" fill="none" xmlns="http://www.w3.org/2000/svg">
<path d="M481.137 250.603C481.137 230.446 479.501 215.736 475.961 200.482H245.788V291.461H380.894C378.171 314.071 363.462 348.12 330.774 371L330.316 374.046L403.093 430.425L408.135 430.928C454.441 388.162 481.137 325.238 481.137 250.603Z" fill="#4285F4"/>
<path d="M245.788 490.31C311.979 490.31 367.546 468.517 408.135 430.928L330.774 371C310.073 385.437 282.288 395.515 245.788 395.515C180.958 395.515 125.935 352.751 106.321 293.641L103.446 293.885L27.7717 352.45L26.7821 355.201C67.096 435.285 149.904 490.31 245.788 490.31Z" fill="#34A853"/>
<path d="M106.321 293.641C101.145 278.387 98.1502 262.043 98.1502 245.155C98.1502 228.265 101.145 211.922 106.049 196.669L105.911 193.42L29.289 133.914L26.782 135.107C10.1667 168.339 0.632812 205.658 0.632812 245.155C0.632812 284.652 10.1667 321.969 26.7821 355.201L106.321 293.641Z" fill="#FBBC05"/>
<path d="M245.788 94.7926C291.822 94.7926 322.874 114.677 340.58 131.295L409.768 63.7403C367.276 24.2432 311.979 0 245.788 0C149.904 0 67.096 55.0232 26.782 135.107L106.049 196.669C125.935 137.559 180.958 94.7926 245.788 94.7926Z" fill="#EB4335"/>
</svg>
