<svg viewBox="0 0 280 88" fill="none" xmlns="http://www.w3.org/2000/svg">
<path d="M191.513 81.82C190.269 77.8787 187.652 77.3846 186.156 77.3846C179.307 77.3846 180.677 87.9753 171.21 87.9753C165.975 87.9753 159.996 84.6488 159.996 72.2137V22.7001H151.015V20.6874H159.993V7.51304C159.993 3.57172 159.993 1.9725 158.623 1.9725C154.887 1.9725 157.627 18.843 149.156 18.843C145.669 18.843 143.051 15.8861 144.547 10.3455H144.795C145.165 13.2988 146.787 14.1624 147.909 14.1624C152.27 14.1624 152.144 0 160.989 0C165.35 0 169.959 2.95691 169.959 12.4424V20.691H179.925V22.5208H169.959V73.5677C169.959 83.6644 171.07 85.7576 172.95 85.7576C177.56 85.7576 176.438 71.35 185.538 71.35C190.521 71.35 192.764 75.661 191.769 81.82H191.513Z" fill="currentColor"/>
<path d="M140.945 20.691V10.3711C140.945 9.43064 138.775 9.43064 138.775 10.3711C138.775 16.1349 130.234 20.691 125.759 20.691V22.7001C130.234 22.7001 134.573 24.4457 134.573 29.4044V72.9529C134.573 84.0779 139.138 87.957 153.484 87.957C153.484 87.957 140.945 85.9992 140.945 72.6785V22.7001H151.044V20.6874L140.945 20.691Z" fill="currentColor"/>
<path d="M117.862 86.9507V42.4251C117.862 40.1525 118.887 24.5153 101.783 24.5153C96.6889 24.5153 89.0217 26.4036 89.0217 32.7126C89.0217 37.47 100.958 38.7545 108.036 40.2806C115.115 41.8066 115.104 42.5348 114.545 44.1926C113.856 46.2236 93.8456 53.0523 87.3409 61.6523C82.0838 68.6054 82.0579 82.3433 95.6375 83.2984C104.619 83.9279 114.197 80.3086 111.224 71.5623C110.058 68.126 101.791 67.3794 101.783 62.6513C101.783 58.1867 106.266 56.0642 108.673 57.5609C112.993 60.2726 116.336 65.7436 115.437 72.4442C114.26 81.1832 109.273 87.1739 99.3286 87.8619C87.5038 88.6889 79.7551 84.5683 77.9336 75.2109C76.0825 65.718 78.7814 58.527 87.1225 53.766C97.2369 47.9912 111.901 44.8147 111.901 43.5193C111.901 42.3775 93.1348 41.3235 87.8888 37.2285C83.8164 34.0374 86.4079 28.9396 89.2919 26.378C92.1759 23.8163 96.9666 20.8447 107.536 21.9646C114.434 22.6965 125.677 27.0111 127.065 39.1205C128.454 51.2299 127.065 75.6061 127.065 77.9592C127.065 85.6954 135.643 87.0495 135.643 87.0495L117.862 86.9507Z" fill="currentColor"/>
<path d="M29.061 14.7114V53.6964L54.4507 15.0371C54.4507 15.0371 54.4284 11.0116 50.0895 11.0116V9.18179H64.8501V10.459H62.1512L39.0533 42.9227C39.0533 42.9227 46.9685 35.0584 56.1907 35.7281C62.5584 36.1892 70.7477 40.9502 67.5749 53.4805C64.4021 66.0108 62.1216 71.2329 61.3552 75.295C60.2853 80.9563 63.4692 84.1108 66.6383 82.6141C69.8073 81.1173 73.628 77.8238 74.3869 75.8842C74.3869 75.8842 73.5724 84.3012 66.7567 87.0239C60.2224 89.6185 54.247 86.6872 52.1997 82.3836C49.9044 77.5603 53.2549 69.2714 55.3688 62.7721C57.4827 56.2727 60.9221 44.7159 55.839 41.5468C50.7559 38.3776 40.1084 42.4763 35.6472 48.8658C33.0764 52.5146 30.7275 56.3114 28.6131 60.236V81.2381C28.6131 81.2381 28.5575 85.7613 34.481 85.7613V87.269H13.0935V85.1831C13.0935 85.1831 19.5538 86.4603 19.5538 81.121V15.6043C19.5538 15.6043 29.061 7.28615 29.061 14.7114Z" fill="currentColor"/>
<path d="M29.061 14.7114C29.061 8.27788 27.3025 1.21863 20.4572 1.21863C14.2301 1.21863 13.2453 16.9254 7.71053 18.2209C3.0902 19.2968 1.41681 15.7543 0.554202 13.0975C0.554202 13.0975 -2.70003 24.3908 6.56285 24.3908C14.53 24.3908 17.0437 11.7435 17.277 10.1516C18.3062 3.13258 19.8907 8.6109 19.5538 21.7523" fill="currentColor"/>
<path d="M199.64 39.064C199.544 39.064 199.459 39.0427 199.384 39C199.309 38.968 199.272 38.92 199.272 38.856C199.272 38.696 199.405 38.5893 199.672 38.536C200.077 38.4507 200.371 38.3333 200.552 38.184C200.733 38.0347 200.824 37.7893 200.824 37.448V30.184C200.824 29.832 200.749 29.5813 200.6 29.432C200.451 29.2827 200.168 29.1653 199.752 29.08C199.485 29.0267 199.352 28.9147 199.352 28.744C199.352 28.68 199.389 28.632 199.464 28.6C199.539 28.5573 199.624 28.536 199.72 28.536C199.976 28.536 200.227 28.5413 200.472 28.552C200.717 28.5627 200.952 28.5733 201.176 28.584C201.411 28.5947 201.645 28.6 201.88 28.6C202.104 28.6 202.328 28.5947 202.552 28.584C202.787 28.5733 203.027 28.5627 203.272 28.552C203.517 28.5413 203.768 28.536 204.024 28.536C204.131 28.536 204.216 28.5573 204.28 28.6C204.344 28.632 204.376 28.6853 204.376 28.76C204.376 28.8453 204.339 28.9147 204.264 28.968C204.2 29.0107 204.104 29.048 203.976 29.08C203.549 29.1867 203.261 29.3147 203.112 29.464C202.963 29.6133 202.888 29.8587 202.888 30.2V37.432C202.888 37.7627 202.973 38.0027 203.144 38.152C203.325 38.3013 203.619 38.4293 204.024 38.536C204.163 38.568 204.264 38.6053 204.328 38.648C204.403 38.6907 204.44 38.7547 204.44 38.84C204.44 38.9147 204.408 38.968 204.344 39C204.28 39.032 204.195 39.048 204.088 39.048C203.832 39.048 203.576 39.0427 203.32 39.032C203.064 39.0213 202.813 39.0107 202.568 39C202.333 38.9893 202.104 38.984 201.88 38.984C201.645 38.984 201.405 38.9893 201.16 39C200.915 39.0107 200.664 39.0213 200.408 39.032C200.152 39.0533 199.896 39.064 199.64 39.064Z" fill="currentColor"/>
<path d="M215.519 39.288C215.391 39.288 215.178 39.208 214.879 39.048C214.58 38.888 214.276 38.6107 213.967 38.216C213.786 38.0133 213.562 37.768 213.295 37.48C213.039 37.1813 212.751 36.856 212.431 36.504C212.122 36.152 211.796 35.784 211.455 35.4C211.114 35.016 210.772 34.632 210.431 34.248C210.1 33.864 209.775 33.496 209.455 33.144C209.135 32.792 208.842 32.472 208.575 32.184C208.308 31.8853 208.084 31.6293 207.903 31.416C207.86 31.3627 207.812 31.32 207.759 31.288C207.716 31.2453 207.679 31.224 207.647 31.224C207.604 31.224 207.572 31.2613 207.551 31.336C207.53 31.4107 207.519 31.48 207.519 31.544C207.519 32.0347 207.519 32.616 207.519 33.288C207.53 33.96 207.535 34.6427 207.535 35.336C207.535 36.0293 207.535 36.6693 207.535 37.256C207.535 37.5867 207.631 37.8587 207.823 38.072C208.015 38.2853 208.319 38.44 208.735 38.536C208.863 38.5573 208.97 38.5947 209.055 38.648C209.151 38.6907 209.199 38.7547 209.199 38.84C209.199 38.9147 209.156 38.968 209.071 39C208.986 39.032 208.89 39.048 208.783 39.048C208.495 39.048 208.266 39.0427 208.095 39.032C207.924 39.0213 207.77 39.0107 207.631 39C207.492 38.9893 207.316 38.984 207.103 38.984C206.879 38.984 206.676 38.9893 206.495 39C206.324 39.0107 206.17 39.0213 206.031 39.032C205.892 39.0533 205.759 39.064 205.631 39.064C205.524 39.064 205.428 39.0427 205.343 39C205.258 38.968 205.215 38.92 205.215 38.856C205.215 38.7707 205.252 38.7067 205.327 38.664C205.412 38.6107 205.524 38.5627 205.663 38.52C205.94 38.4347 206.143 38.28 206.271 38.056C206.41 37.8213 206.495 37.544 206.527 37.224C206.57 36.8187 206.612 36.2907 206.655 35.64C206.698 34.9787 206.735 34.2373 206.767 33.416C206.81 32.5947 206.831 31.7467 206.831 30.872C206.831 30.3173 206.687 29.9173 206.399 29.672C206.122 29.4267 205.77 29.2293 205.343 29.08C205.268 29.0587 205.172 29.016 205.055 28.952C204.938 28.888 204.879 28.808 204.879 28.712C204.879 28.616 204.922 28.552 205.007 28.52C205.092 28.488 205.183 28.472 205.279 28.472C205.503 28.472 205.727 28.4773 205.951 28.488C206.175 28.4987 206.399 28.5093 206.623 28.52C206.858 28.52 207.098 28.5253 207.343 28.536C207.599 28.5467 207.871 28.552 208.159 28.552C208.255 28.552 208.324 28.5733 208.367 28.616C208.42 28.648 208.468 28.696 208.511 28.76C208.682 28.9627 208.9 29.2187 209.167 29.528C209.434 29.8267 209.722 30.1627 210.031 30.536C210.351 30.8987 210.682 31.2827 211.023 31.688C211.375 32.0933 211.722 32.4987 212.063 32.904C212.415 33.3093 212.751 33.6987 213.071 34.072C213.391 34.4347 213.679 34.7707 213.935 35.08C214.202 35.3787 214.42 35.624 214.591 35.816C214.634 35.8587 214.682 35.912 214.735 35.976C214.799 36.04 214.852 36.072 214.895 36.072C214.98 36.072 215.028 35.9813 215.039 35.8C215.039 35.5227 215.039 35.1707 215.039 34.744C215.039 34.3067 215.039 33.8267 215.039 33.304C215.05 32.7707 215.05 32.2267 215.039 31.672C215.039 31.1173 215.034 30.584 215.023 30.072C215.012 29.8053 214.9 29.5973 214.687 29.448C214.484 29.288 214.228 29.176 213.919 29.112C213.791 29.08 213.668 29.0427 213.551 29C213.444 28.9467 213.391 28.872 213.391 28.776C213.391 28.7013 213.444 28.648 213.551 28.616C213.668 28.584 213.775 28.568 213.871 28.568C214.084 28.568 214.26 28.568 214.399 28.568C214.548 28.568 214.687 28.5733 214.815 28.584C214.943 28.584 215.076 28.584 215.215 28.584C215.45 28.584 215.642 28.584 215.791 28.584C215.94 28.5733 216.1 28.5627 216.271 28.552C216.452 28.5413 216.687 28.536 216.975 28.536C217.103 28.536 217.204 28.5573 217.279 28.6C217.364 28.632 217.407 28.68 217.407 28.744C217.407 28.904 217.252 29.016 216.943 29.08C216.57 29.1547 216.303 29.256 216.143 29.384C215.994 29.512 215.914 29.7253 215.903 30.024C215.903 30.2907 215.898 30.632 215.887 31.048C215.887 31.464 215.882 31.9173 215.871 32.408C215.86 32.8987 215.844 33.4 215.823 33.912C215.812 34.424 215.802 34.9253 215.791 35.416C215.791 35.9067 215.791 36.3493 215.791 36.744C215.791 37 215.802 37.2613 215.823 37.528C215.844 37.7947 215.866 38.0347 215.887 38.248C215.919 38.4507 215.935 38.5947 215.935 38.68C215.935 38.9147 215.898 39.0747 215.823 39.16C215.748 39.2453 215.647 39.288 215.519 39.288Z" fill="currentColor"/>
<path d="M220.906 39.064C220.8 39.064 220.704 39.0427 220.618 39C220.544 38.968 220.507 38.92 220.507 38.856C220.507 38.7707 220.544 38.7013 220.618 38.648C220.693 38.5947 220.8 38.5573 220.939 38.536C221.344 38.4507 221.643 38.3333 221.835 38.184C222.027 38.024 222.122 37.768 222.122 37.416V30.936C222.122 30.4987 222.112 30.168 222.09 29.944C222.069 29.72 222.037 29.5707 221.995 29.496C221.963 29.4107 221.909 29.3627 221.835 29.352C221.728 29.3093 221.594 29.2827 221.434 29.272C221.274 29.2613 221.12 29.256 220.971 29.256H220.475C220.165 29.256 219.867 29.3307 219.579 29.48C219.291 29.6187 219.066 29.8107 218.906 30.056C218.864 30.12 218.794 30.2107 218.699 30.328C218.613 30.4453 218.517 30.552 218.411 30.648C218.315 30.744 218.213 30.792 218.107 30.792C218.032 30.792 217.979 30.7653 217.947 30.712C217.925 30.6587 217.915 30.6 217.915 30.536C217.915 30.408 217.947 30.28 218.01 30.152C218.192 29.7893 218.325 29.4747 218.411 29.208C218.507 28.9307 218.57 28.6053 218.602 28.232C218.624 28.072 218.667 27.9707 218.73 27.928C218.805 27.8747 218.88 27.848 218.954 27.848C219.018 27.848 219.093 27.9173 219.178 28.056C219.274 28.184 219.36 28.2907 219.434 28.376C219.53 28.472 219.701 28.5467 219.947 28.6C220.192 28.6427 220.4 28.664 220.57 28.664L226.475 28.648C226.773 28.648 227.024 28.6267 227.227 28.584C227.429 28.5307 227.589 28.4773 227.706 28.424C227.867 28.328 227.995 28.232 228.09 28.136C228.186 28.0293 228.298 27.976 228.426 27.976C228.48 27.976 228.517 28.008 228.538 28.072C228.57 28.1253 228.587 28.1947 228.587 28.28C228.587 28.3333 228.581 28.3973 228.57 28.472C228.56 28.536 228.549 28.5947 228.538 28.648C228.496 28.8507 228.453 29.032 228.411 29.192C228.368 29.3413 228.331 29.4853 228.299 29.624C228.277 29.752 228.266 29.9013 228.266 30.072V30.344C228.266 30.4933 228.245 30.6213 228.202 30.728C228.16 30.8347 228.09 30.888 227.995 30.888C227.909 30.888 227.835 30.84 227.771 30.744C227.717 30.6373 227.658 30.4773 227.594 30.264C227.499 29.9227 227.339 29.672 227.115 29.512C226.891 29.3413 226.538 29.256 226.059 29.256H224.971C224.768 29.256 224.608 29.2933 224.49 29.368C224.384 29.4427 224.304 29.608 224.251 29.864C224.208 30.1093 224.187 30.4933 224.187 31.016V37.4C224.187 37.7413 224.283 37.992 224.475 38.152C224.667 38.3013 224.971 38.4293 225.387 38.536C225.515 38.568 225.616 38.6053 225.691 38.648C225.765 38.6907 225.803 38.7547 225.803 38.84C225.803 38.9147 225.765 38.968 225.691 39C225.627 39.032 225.541 39.048 225.434 39.048C225.178 39.048 224.923 39.0427 224.667 39.032C224.411 39.0213 224.154 39.0107 223.898 39C223.653 38.9893 223.413 38.984 223.178 38.984C222.944 38.984 222.699 38.9893 222.443 39C222.197 39.0107 221.941 39.0213 221.674 39.032C221.419 39.0533 221.162 39.064 220.906 39.064Z" fill="currentColor"/>
<path d="M229.331 39.08C229.214 39.08 229.118 39.0587 229.043 39.016C228.979 38.9733 228.947 38.92 228.947 38.856C228.947 38.7173 229.086 38.616 229.363 38.552C229.747 38.456 230.019 38.3387 230.179 38.2C230.35 38.0507 230.435 37.8 230.435 37.448V30.2C230.435 29.8373 230.36 29.5813 230.211 29.432C230.072 29.2827 229.806 29.1653 229.411 29.08C229.262 29.048 229.155 29.0053 229.091 28.952C229.027 28.888 228.995 28.824 228.995 28.76C228.995 28.6853 229.027 28.632 229.091 28.6C229.166 28.5573 229.262 28.536 229.379 28.536C229.688 28.536 229.982 28.5413 230.259 28.552C230.547 28.5627 230.824 28.5733 231.091 28.584C231.358 28.5947 231.635 28.6 231.923 28.6C232.414 28.6 232.931 28.5947 233.475 28.584C234.03 28.5733 234.526 28.568 234.963 28.568C235.315 28.5573 235.603 28.5413 235.827 28.52C236.062 28.4987 236.2 28.488 236.243 28.488C236.318 28.488 236.392 28.504 236.467 28.536C236.552 28.568 236.6 28.632 236.611 28.728C236.654 29.08 236.707 29.4267 236.771 29.768C236.835 30.1093 236.867 30.408 236.867 30.664C236.867 30.76 236.84 30.8347 236.787 30.888C236.744 30.9307 236.696 30.952 236.643 30.952C236.59 30.952 236.542 30.936 236.499 30.904C236.456 30.8613 236.419 30.8027 236.387 30.728C236.302 30.4827 236.222 30.2693 236.147 30.088C236.072 29.9067 235.987 29.768 235.891 29.672C235.752 29.5227 235.592 29.4053 235.411 29.32C235.23 29.2347 235.011 29.192 234.755 29.192H233.267C233.075 29.192 232.899 29.2507 232.739 29.368C232.579 29.4747 232.499 29.6293 232.499 29.832V32.968C232.499 33.0853 232.531 33.176 232.595 33.24C232.67 33.304 232.755 33.336 232.851 33.336H234.323C234.611 33.336 234.814 33.256 234.931 33.096C235.059 32.936 235.166 32.7173 235.251 32.44C235.326 32.2267 235.427 32.12 235.555 32.12C235.608 32.12 235.656 32.152 235.699 32.216C235.742 32.2693 235.763 32.344 235.763 32.44C235.752 32.5467 235.742 32.6747 235.731 32.824C235.72 32.9733 235.71 33.1227 235.699 33.272C235.699 33.4213 235.699 33.5547 235.699 33.672C235.699 33.8 235.699 33.944 235.699 34.104C235.71 34.264 235.715 34.424 235.715 34.584C235.726 34.7333 235.736 34.8613 235.747 34.968C235.758 35.0853 235.747 35.176 235.715 35.24C235.694 35.304 235.651 35.336 235.587 35.336C235.416 35.336 235.294 35.1867 235.219 34.888C235.134 34.5893 235.032 34.3653 234.915 34.216C234.798 34.0667 234.638 33.992 234.435 33.992H232.931C232.792 33.992 232.686 34.0187 232.611 34.072C232.536 34.1253 232.499 34.2267 232.499 34.376V37.416C232.499 37.768 232.574 38.0133 232.723 38.152C232.872 38.2907 233.102 38.36 233.411 38.36H234.723C234.99 38.36 235.23 38.3333 235.443 38.28C235.667 38.2267 235.859 38.1413 236.019 38.024C236.2 37.896 236.36 37.7253 236.499 37.512C236.648 37.288 236.792 37.0427 236.931 36.776C236.974 36.6907 237.016 36.6373 237.059 36.616C237.102 36.584 237.155 36.568 237.219 36.568C237.272 36.5787 237.31 36.6107 237.331 36.664C237.363 36.7173 237.379 36.776 237.379 36.84C237.379 36.9893 237.352 37.1813 237.299 37.416C237.246 37.6507 237.176 37.896 237.091 38.152C237.016 38.3973 236.947 38.6267 236.883 38.84C236.851 38.9147 236.808 38.968 236.755 39C236.702 39.0427 236.638 39.064 236.563 39.064C236.307 39.064 235.976 39.0587 235.571 39.048C235.176 39.048 234.744 39.0427 234.275 39.032C233.806 39.0213 233.326 39.0107 232.835 39C232.344 39 231.875 39 231.427 39C231.203 39 230.974 39.0053 230.739 39.016C230.515 39.0267 230.286 39.0373 230.051 39.048C229.816 39.0693 229.576 39.08 229.331 39.08Z" fill="currentColor"/>
<path d="M247.96 39.336C247.501 39.336 247.101 39.2827 246.76 39.176C246.418 39.08 246.125 38.936 245.88 38.744C245.634 38.552 245.41 38.328 245.208 38.072C244.973 37.752 244.743 37.4427 244.52 37.144C244.296 36.8347 244.066 36.4987 243.831 36.136C243.607 35.7627 243.357 35.32 243.079 34.808C242.941 34.5627 242.765 34.3813 242.551 34.264C242.413 34.1893 242.269 34.136 242.12 34.104C241.981 34.072 241.863 34.056 241.768 34.056C241.704 34.0453 241.656 34.072 241.624 34.136C241.592 34.2 241.576 34.28 241.576 34.376V37.352C241.576 37.6827 241.661 37.9387 241.831 38.12C242.013 38.3013 242.317 38.44 242.743 38.536C242.882 38.5573 242.984 38.5947 243.048 38.648C243.111 38.6907 243.143 38.7547 243.143 38.84C243.143 38.9147 243.111 38.968 243.048 39C242.994 39.032 242.909 39.048 242.792 39.048C242.546 39.048 242.296 39.0373 242.04 39.016C241.784 39.0053 241.533 38.9947 241.288 38.984C241.053 38.9733 240.829 38.968 240.615 38.968C240.381 38.968 240.135 38.9733 239.88 38.984C239.634 38.9947 239.383 39.0107 239.128 39.032C238.872 39.0533 238.615 39.064 238.359 39.064C238.264 39.064 238.178 39.0427 238.104 39C238.029 38.968 237.992 38.92 237.992 38.856C237.992 38.696 238.125 38.5893 238.391 38.536C238.797 38.4507 239.085 38.3333 239.255 38.184C239.426 38.0347 239.512 37.784 239.512 37.432V30.36C239.512 30.0507 239.485 29.816 239.432 29.656C239.389 29.4853 239.298 29.3573 239.16 29.272C239.021 29.1867 238.813 29.1227 238.536 29.08C238.386 29.0587 238.279 29.016 238.215 28.952C238.152 28.888 238.12 28.824 238.12 28.76C238.12 28.6853 238.152 28.632 238.215 28.6C238.29 28.5573 238.386 28.536 238.503 28.536C238.824 28.536 239.079 28.5413 239.271 28.552C239.464 28.5627 239.645 28.5787 239.816 28.6C239.997 28.6107 240.21 28.616 240.456 28.616C240.69 28.616 240.898 28.6053 241.079 28.584C241.261 28.5627 241.464 28.5413 241.688 28.52C241.911 28.4987 242.199 28.488 242.551 28.488C243.778 28.488 244.717 28.7013 245.368 29.128C246.018 29.5547 246.344 30.2053 246.344 31.08C246.344 31.56 246.242 31.9707 246.04 32.312C245.837 32.6427 245.581 32.9147 245.271 33.128C244.973 33.3413 244.664 33.5067 244.344 33.624C244.301 33.6347 244.279 33.6613 244.279 33.704C244.29 33.7467 244.312 33.784 244.344 33.816C244.664 34.3067 244.973 34.776 245.271 35.224C245.581 35.6613 245.901 36.0773 246.232 36.472C246.573 36.8667 246.941 37.2453 247.335 37.608C247.666 37.9173 248.002 38.104 248.344 38.168C248.696 38.2213 249.058 38.248 249.432 38.248C249.592 38.248 249.671 38.328 249.671 38.488C249.671 38.7013 249.592 38.872 249.432 39C249.271 39.1173 249.058 39.2027 248.792 39.256C248.536 39.3093 248.258 39.336 247.96 39.336ZM242.264 33.592C242.701 33.592 243.064 33.496 243.352 33.304C243.65 33.1013 243.874 32.8347 244.023 32.504C244.184 32.1733 244.264 31.8053 244.264 31.4C244.264 30.92 244.205 30.5147 244.087 30.184C243.97 29.8427 243.768 29.5813 243.48 29.4C243.202 29.208 242.818 29.112 242.327 29.112C242.05 29.112 241.858 29.2133 241.751 29.416C241.656 29.608 241.602 30.0027 241.592 30.6C241.581 30.8453 241.576 31.1707 241.576 31.576C241.576 31.9707 241.576 32.4453 241.576 33C241.576 33.2347 241.634 33.3947 241.751 33.48C241.88 33.5547 242.05 33.592 242.264 33.592Z" fill="currentColor"/>
<path d="M250.234 39.064C250.138 39.064 250.052 39.0427 249.978 39C249.903 38.968 249.866 38.92 249.866 38.856C249.866 38.696 249.999 38.5893 250.266 38.536C250.671 38.4507 250.964 38.3333 251.146 38.184C251.327 38.0347 251.418 37.7893 251.418 37.448V30.184C251.418 29.832 251.343 29.5813 251.194 29.432C251.044 29.2827 250.762 29.1653 250.346 29.08C250.079 29.0267 249.946 28.9147 249.946 28.744C249.946 28.68 249.983 28.632 250.058 28.6C250.132 28.5573 250.218 28.536 250.314 28.536C250.57 28.536 250.82 28.5413 251.066 28.552C251.311 28.5627 251.546 28.5733 251.77 28.584C252.004 28.5947 252.239 28.6 252.474 28.6C252.698 28.6 252.922 28.5947 253.146 28.584C253.38 28.5733 253.62 28.5627 253.866 28.552C254.111 28.5413 254.362 28.536 254.618 28.536C254.724 28.536 254.81 28.5573 254.874 28.6C254.938 28.632 254.97 28.6853 254.97 28.76C254.97 28.8453 254.932 28.9147 254.858 28.968C254.794 29.0107 254.698 29.048 254.57 29.08C254.143 29.1867 253.855 29.3147 253.706 29.464C253.556 29.6133 253.482 29.8587 253.482 30.2V37.432C253.482 37.7627 253.567 38.0027 253.738 38.152C253.919 38.3013 254.212 38.4293 254.618 38.536C254.756 38.568 254.858 38.6053 254.922 38.648C254.996 38.6907 255.034 38.7547 255.034 38.84C255.034 38.9147 255.002 38.968 254.938 39C254.874 39.032 254.788 39.048 254.682 39.048C254.426 39.048 254.17 39.0427 253.914 39.032C253.658 39.0213 253.407 39.0107 253.162 39C252.927 38.9893 252.698 38.984 252.474 38.984C252.239 38.984 251.999 38.9893 251.754 39C251.508 39.0107 251.258 39.0213 251.002 39.032C250.746 39.0533 250.49 39.064 250.234 39.064Z" fill="currentColor"/>
<path d="M261.313 39.224C260.588 39.224 259.894 39.1013 259.233 38.856C258.572 38.6 257.985 38.2427 257.473 37.784C256.972 37.3147 256.572 36.76 256.273 36.12C255.985 35.4693 255.841 34.7493 255.841 33.96C255.841 33.2347 255.958 32.5413 256.193 31.88C256.438 31.208 256.796 30.6107 257.265 30.088C257.745 29.5653 258.332 29.1493 259.025 28.84C259.729 28.5307 260.54 28.376 261.457 28.376C262.182 28.376 262.87 28.504 263.521 28.76C264.182 29.0053 264.769 29.3627 265.281 29.832C265.793 30.2907 266.193 30.8453 266.481 31.496C266.78 32.136 266.929 32.8507 266.929 33.64C266.929 34.3547 266.806 35.048 266.561 35.72C266.326 36.392 265.969 36.9893 265.489 37.512C265.02 38.0347 264.433 38.4507 263.729 38.76C263.036 39.0693 262.23 39.224 261.313 39.224ZM261.585 38.52C262.257 38.52 262.817 38.3493 263.265 38.008C263.724 37.6667 264.065 37.192 264.289 36.584C264.524 35.9653 264.641 35.256 264.641 34.456C264.641 33.7733 264.572 33.112 264.433 32.472C264.294 31.832 264.081 31.2613 263.793 30.76C263.505 30.248 263.142 29.8427 262.705 29.544C262.278 29.2453 261.766 29.096 261.169 29.096C260.497 29.096 259.932 29.2667 259.473 29.608C259.025 29.9493 258.689 30.424 258.465 31.032C258.241 31.64 258.129 32.344 258.129 33.144C258.129 33.8267 258.198 34.488 258.337 35.128C258.476 35.768 258.684 36.344 258.961 36.856C259.249 37.368 259.606 37.7733 260.033 38.072C260.47 38.3707 260.988 38.52 261.585 38.52Z" fill="currentColor"/>
<path d="M277.741 39.336C277.282 39.336 276.882 39.2827 276.541 39.176C276.199 39.08 275.906 38.936 275.661 38.744C275.415 38.552 275.191 38.328 274.989 38.072C274.754 37.752 274.525 37.4427 274.301 37.144C274.077 36.8347 273.847 36.4987 273.613 36.136C273.389 35.7627 273.138 35.32 272.861 34.808C272.722 34.5627 272.546 34.3813 272.333 34.264C272.194 34.1893 272.05 34.136 271.901 34.104C271.762 34.072 271.645 34.056 271.549 34.056C271.485 34.0453 271.437 34.072 271.405 34.136C271.373 34.2 271.357 34.28 271.357 34.376V37.352C271.357 37.6827 271.442 37.9387 271.613 38.12C271.794 38.3013 272.098 38.44 272.525 38.536C272.663 38.5573 272.765 38.5947 272.829 38.648C272.893 38.6907 272.925 38.7547 272.925 38.84C272.925 38.9147 272.893 38.968 272.829 39C272.775 39.032 272.69 39.048 272.573 39.048C272.327 39.048 272.077 39.0373 271.821 39.016C271.565 39.0053 271.314 38.9947 271.069 38.984C270.834 38.9733 270.61 38.968 270.397 38.968C270.162 38.968 269.917 38.9733 269.661 38.984C269.415 38.9947 269.165 39.0107 268.909 39.032C268.653 39.0533 268.397 39.064 268.141 39.064C268.045 39.064 267.959 39.0427 267.885 39C267.81 38.968 267.773 38.92 267.773 38.856C267.773 38.696 267.906 38.5893 268.173 38.536C268.578 38.4507 268.866 38.3333 269.037 38.184C269.207 38.0347 269.293 37.784 269.293 37.432V30.36C269.293 30.0507 269.266 29.816 269.213 29.656C269.17 29.4853 269.079 29.3573 268.941 29.272C268.802 29.1867 268.594 29.1227 268.317 29.08C268.167 29.0587 268.061 29.016 267.997 28.952C267.933 28.888 267.901 28.824 267.901 28.76C267.901 28.6853 267.933 28.632 267.997 28.6C268.071 28.5573 268.167 28.536 268.285 28.536C268.605 28.536 268.861 28.5413 269.053 28.552C269.245 28.5627 269.426 28.5787 269.597 28.6C269.778 28.6107 269.991 28.616 270.237 28.616C270.471 28.616 270.679 28.6053 270.861 28.584C271.042 28.5627 271.245 28.5413 271.469 28.52C271.693 28.4987 271.981 28.488 272.333 28.488C273.559 28.488 274.498 28.7013 275.149 29.128C275.799 29.5547 276.125 30.2053 276.125 31.08C276.125 31.56 276.023 31.9707 275.821 32.312C275.618 32.6427 275.362 32.9147 275.053 33.128C274.754 33.3413 274.445 33.5067 274.125 33.624C274.082 33.6347 274.061 33.6613 274.061 33.704C274.071 33.7467 274.093 33.784 274.125 33.816C274.445 34.3067 274.754 34.776 275.053 35.224C275.362 35.6613 275.682 36.0773 276.013 36.472C276.354 36.8667 276.722 37.2453 277.117 37.608C277.447 37.9173 277.783 38.104 278.125 38.168C278.477 38.2213 278.839 38.248 279.213 38.248C279.373 38.248 279.453 38.328 279.453 38.488C279.453 38.7013 279.373 38.872 279.213 39C279.053 39.1173 278.839 39.2027 278.573 39.256C278.317 39.3093 278.039 39.336 277.741 39.336ZM272.045 33.592C272.482 33.592 272.845 33.496 273.133 33.304C273.431 33.1013 273.655 32.8347 273.805 32.504C273.965 32.1733 274.045 31.8053 274.045 31.4C274.045 30.92 273.986 30.5147 273.869 30.184C273.751 29.8427 273.549 29.5813 273.261 29.4C272.983 29.208 272.599 29.112 272.109 29.112C271.831 29.112 271.639 29.2133 271.533 29.416C271.437 29.608 271.383 30.0027 271.373 30.6C271.362 30.8453 271.357 31.1707 271.357 31.576C271.357 31.9707 271.357 32.4453 271.357 33C271.357 33.2347 271.415 33.3947 271.533 33.48C271.661 33.5547 271.831 33.592 272.045 33.592Z" fill="currentColor"/>
<path d="M205.064 60.112C204.776 60.112 204.429 60.1013 204.024 60.08C203.619 60.0587 203.208 60.0373 202.792 60.016C202.387 60.0053 202.051 60 201.784 60C201.571 60 201.352 60 201.128 60C200.915 60.0107 200.691 60.0213 200.456 60.032C200.221 60.0533 199.971 60.064 199.704 60.064C199.608 60.064 199.523 60.0427 199.448 60C199.373 59.968 199.336 59.9147 199.336 59.84C199.336 59.744 199.368 59.6747 199.432 59.632C199.507 59.5893 199.613 59.5573 199.752 59.536C200.157 59.4507 200.435 59.3333 200.584 59.184C200.733 59.0347 200.808 58.784 200.808 58.432V51.2C200.808 50.8373 200.733 50.5813 200.584 50.432C200.445 50.2827 200.168 50.1653 199.752 50.08C199.613 50.0587 199.507 50.0267 199.432 49.984C199.368 49.9307 199.336 49.856 199.336 49.76C199.336 49.6853 199.373 49.632 199.448 49.6C199.523 49.5573 199.608 49.536 199.704 49.536C199.96 49.536 200.205 49.5413 200.44 49.552C200.675 49.552 200.904 49.5627 201.128 49.584C201.363 49.5947 201.597 49.6 201.832 49.6C201.992 49.6 202.205 49.5947 202.472 49.584C202.749 49.5627 203.043 49.5467 203.352 49.536C203.672 49.5147 203.971 49.4987 204.248 49.488C204.525 49.4667 204.749 49.456 204.92 49.456C205.816 49.456 206.621 49.584 207.336 49.84C208.051 50.096 208.659 50.4533 209.16 50.912C209.672 51.3707 210.061 51.9147 210.328 52.544C210.595 53.1733 210.728 53.856 210.728 54.592C210.728 55.328 210.595 56.0267 210.328 56.688C210.061 57.3493 209.677 57.936 209.176 58.448C208.685 58.96 208.088 59.3653 207.384 59.664C206.691 59.9627 205.917 60.112 205.064 60.112ZM204.824 59.376C205.592 59.376 206.243 59.1947 206.776 58.832C207.32 58.4587 207.731 57.9413 208.008 57.28C208.285 56.608 208.424 55.8347 208.424 54.96C208.424 54.2347 208.328 53.5787 208.136 52.992C207.955 52.3947 207.693 51.8933 207.352 51.488C207.021 51.072 206.621 50.752 206.152 50.528C205.693 50.304 205.192 50.192 204.648 50.192C204.264 50.192 203.939 50.2027 203.672 50.224C203.416 50.2453 203.219 50.3093 203.08 50.416C202.952 50.512 202.888 50.6773 202.888 50.912V57.952C202.888 58.3253 202.968 58.6187 203.128 58.832C203.299 59.0347 203.528 59.1787 203.816 59.264C204.115 59.3387 204.451 59.376 204.824 59.376Z" fill="currentColor"/>
<path d="M211.971 60.08C211.854 60.08 211.758 60.0587 211.684 60.016C211.62 59.9733 211.587 59.92 211.587 59.856C211.587 59.7173 211.726 59.616 212.003 59.552C212.387 59.456 212.66 59.3387 212.82 59.2C212.99 59.0507 213.076 58.8 213.076 58.448V51.2C213.076 50.8373 213.001 50.5813 212.852 50.432C212.713 50.2827 212.446 50.1653 212.051 50.08C211.902 50.048 211.796 50.0053 211.732 49.952C211.668 49.888 211.635 49.824 211.635 49.76C211.635 49.6853 211.668 49.632 211.732 49.6C211.806 49.5573 211.902 49.536 212.02 49.536C212.329 49.536 212.622 49.5413 212.9 49.552C213.188 49.5627 213.465 49.5733 213.732 49.584C213.998 49.5947 214.276 49.6 214.564 49.6C215.054 49.6 215.571 49.5947 216.115 49.584C216.67 49.5733 217.166 49.568 217.604 49.568C217.956 49.5573 218.243 49.5413 218.467 49.52C218.702 49.4987 218.841 49.488 218.883 49.488C218.958 49.488 219.033 49.504 219.107 49.536C219.193 49.568 219.241 49.632 219.251 49.728C219.294 50.08 219.348 50.4267 219.411 50.768C219.475 51.1093 219.508 51.408 219.508 51.664C219.508 51.76 219.481 51.8347 219.428 51.888C219.385 51.9307 219.337 51.952 219.284 51.952C219.23 51.952 219.182 51.936 219.139 51.904C219.097 51.8613 219.059 51.8027 219.027 51.728C218.942 51.4827 218.862 51.2693 218.788 51.088C218.713 50.9067 218.627 50.768 218.531 50.672C218.393 50.5227 218.233 50.4053 218.051 50.32C217.87 50.2347 217.652 50.192 217.396 50.192H215.908C215.715 50.192 215.54 50.2507 215.38 50.368C215.219 50.4747 215.139 50.6293 215.139 50.832V53.968C215.139 54.0853 215.172 54.176 215.236 54.24C215.31 54.304 215.396 54.336 215.492 54.336H216.964C217.251 54.336 217.454 54.256 217.572 54.096C217.7 53.936 217.806 53.7173 217.891 53.44C217.966 53.2267 218.067 53.12 218.195 53.12C218.249 53.12 218.297 53.152 218.34 53.216C218.382 53.2693 218.404 53.344 218.404 53.44C218.393 53.5467 218.382 53.6747 218.372 53.824C218.361 53.9733 218.35 54.1227 218.34 54.272C218.34 54.4213 218.34 54.5547 218.34 54.672C218.34 54.8 218.34 54.944 218.34 55.104C218.35 55.264 218.355 55.424 218.355 55.584C218.366 55.7333 218.377 55.8613 218.387 55.968C218.398 56.0853 218.387 56.176 218.355 56.24C218.334 56.304 218.291 56.336 218.227 56.336C218.057 56.336 217.934 56.1867 217.859 55.888C217.774 55.5893 217.673 55.3653 217.555 55.216C217.438 55.0667 217.278 54.992 217.076 54.992H215.572C215.433 54.992 215.326 55.0187 215.251 55.072C215.177 55.1253 215.139 55.2267 215.139 55.376V58.416C215.139 58.768 215.214 59.0133 215.363 59.152C215.513 59.2907 215.742 59.36 216.051 59.36H217.363C217.63 59.36 217.87 59.3333 218.083 59.28C218.307 59.2267 218.499 59.1413 218.66 59.024C218.841 58.896 219.001 58.7253 219.139 58.512C219.289 58.288 219.433 58.0427 219.572 57.776C219.614 57.6907 219.657 57.6373 219.699 57.616C219.742 57.584 219.796 57.568 219.859 57.568C219.913 57.5787 219.95 57.6107 219.971 57.664C220.003 57.7173 220.02 57.776 220.02 57.84C220.02 57.9893 219.993 58.1813 219.939 58.416C219.886 58.6507 219.817 58.896 219.732 59.152C219.657 59.3973 219.587 59.6267 219.523 59.84C219.492 59.9147 219.449 59.968 219.396 60C219.342 60.0427 219.278 60.064 219.204 60.064C218.948 60.064 218.617 60.0587 218.212 60.048C217.817 60.048 217.385 60.0427 216.915 60.032C216.446 60.0213 215.966 60.0107 215.475 60C214.985 60 214.516 60 214.068 60C213.844 60 213.614 60.0053 213.38 60.016C213.156 60.0267 212.926 60.0373 212.691 60.048C212.457 60.0693 212.217 60.08 211.971 60.08Z" fill="currentColor"/>
<path d="M223.752 60.24C223.293 60.24 222.856 60.1813 222.44 60.064C222.035 59.9467 221.661 59.7707 221.32 59.536C221.256 59.4827 221.197 59.4293 221.144 59.376C221.091 59.312 221.048 59.2427 221.016 59.168C220.931 58.9013 220.872 58.576 220.84 58.192C220.808 57.7973 220.797 57.4187 220.808 57.056C220.808 56.9813 220.835 56.928 220.888 56.896C220.952 56.864 221.027 56.848 221.112 56.848C221.197 56.848 221.261 56.864 221.304 56.896C221.357 56.9173 221.395 56.9653 221.416 57.04C221.651 57.84 221.992 58.464 222.44 58.912C222.888 59.36 223.395 59.584 223.96 59.584C224.312 59.584 224.611 59.504 224.856 59.344C225.101 59.184 225.288 58.976 225.416 58.72C225.544 58.464 225.608 58.1867 225.608 57.888C225.608 57.5147 225.539 57.2053 225.4 56.96C225.272 56.7147 225.075 56.496 224.808 56.304C224.541 56.1013 224.205 55.888 223.8 55.664C223.363 55.408 222.936 55.1413 222.52 54.864C222.104 54.576 221.763 54.24 221.496 53.856C221.229 53.4613 221.096 52.976 221.096 52.4C221.096 51.8027 221.245 51.28 221.544 50.832C221.853 50.3733 222.28 50.016 222.824 49.76C223.368 49.504 223.997 49.376 224.712 49.376C225.107 49.376 225.475 49.4187 225.816 49.504C226.157 49.5893 226.429 49.6747 226.632 49.76C226.749 49.8027 226.835 49.856 226.888 49.92C226.952 49.984 227 50.0853 227.032 50.224C227.096 50.448 227.149 50.7147 227.192 51.024C227.245 51.3333 227.272 51.6587 227.272 52C227.272 52.128 227.176 52.192 226.984 52.192C226.899 52.192 226.813 52.1707 226.728 52.128C226.643 52.0853 226.589 52.0267 226.568 51.952C226.376 51.3333 226.109 50.864 225.768 50.544C225.437 50.224 225.027 50.064 224.536 50.064C224.205 50.064 223.923 50.1227 223.688 50.24C223.453 50.3467 223.267 50.5173 223.128 50.752C222.989 50.976 222.92 51.2693 222.92 51.632C222.92 51.9093 223.011 52.1653 223.192 52.4C223.384 52.6347 223.645 52.864 223.976 53.088C224.317 53.312 224.696 53.5573 225.112 53.824C225.624 54.1227 226.051 54.4267 226.392 54.736C226.744 55.0347 227.011 55.3707 227.192 55.744C227.373 56.1067 227.464 56.5387 227.464 57.04C227.464 57.744 227.309 58.336 227 58.816C226.691 59.2853 226.259 59.6427 225.704 59.888C225.149 60.1227 224.499 60.24 223.752 60.24Z" fill="currentColor"/>
<path d="M228.718 60.064C228.622 60.064 228.537 60.0427 228.462 60C228.387 59.968 228.35 59.92 228.35 59.856C228.35 59.696 228.483 59.5893 228.75 59.536C229.155 59.4507 229.449 59.3333 229.63 59.184C229.811 59.0347 229.902 58.7893 229.902 58.448V51.184C229.902 50.832 229.827 50.5813 229.678 50.432C229.529 50.2827 229.246 50.1653 228.83 50.08C228.563 50.0267 228.43 49.9147 228.43 49.744C228.43 49.68 228.467 49.632 228.542 49.6C228.617 49.5573 228.702 49.536 228.798 49.536C229.054 49.536 229.305 49.5413 229.55 49.552C229.795 49.5627 230.03 49.5733 230.254 49.584C230.489 49.5947 230.723 49.6 230.958 49.6C231.182 49.6 231.406 49.5947 231.63 49.584C231.865 49.5733 232.105 49.5627 232.35 49.552C232.595 49.5413 232.846 49.536 233.102 49.536C233.209 49.536 233.294 49.5573 233.358 49.6C233.422 49.632 233.454 49.6853 233.454 49.76C233.454 49.8453 233.417 49.9147 233.342 49.968C233.278 50.0107 233.182 50.048 233.054 50.08C232.627 50.1867 232.339 50.3147 232.19 50.464C232.041 50.6133 231.966 50.8587 231.966 51.2V58.432C231.966 58.7627 232.051 59.0027 232.222 59.152C232.403 59.3013 232.697 59.4293 233.102 59.536C233.241 59.568 233.342 59.6053 233.406 59.648C233.481 59.6907 233.518 59.7547 233.518 59.84C233.518 59.9147 233.486 59.968 233.422 60C233.358 60.032 233.273 60.048 233.166 60.048C232.91 60.048 232.654 60.0427 232.398 60.032C232.142 60.0213 231.891 60.0107 231.646 60C231.411 59.9893 231.182 59.984 230.958 59.984C230.723 59.984 230.483 59.9893 230.238 60C229.993 60.0107 229.742 60.0213 229.486 60.032C229.23 60.0533 228.974 60.064 228.718 60.064Z" fill="currentColor"/>
<path d="M239.909 60.224C239.152 60.224 238.437 60.096 237.765 59.84C237.093 59.584 236.496 59.2267 235.973 58.768C235.461 58.2987 235.056 57.744 234.757 57.104C234.469 56.464 234.325 55.76 234.325 54.992C234.325 54.2347 234.469 53.52 234.757 52.848C235.056 52.176 235.472 51.584 236.005 51.072C236.539 50.5493 237.168 50.1387 237.893 49.84C238.629 49.5307 239.44 49.376 240.325 49.376C240.528 49.376 240.779 49.3973 241.077 49.44C241.376 49.472 241.685 49.5147 242.005 49.568C242.325 49.6213 242.619 49.68 242.885 49.744C243.163 49.808 243.376 49.872 243.525 49.936C243.6 49.968 243.659 50.0107 243.701 50.064C243.744 50.1067 243.771 50.1707 243.781 50.256C243.835 50.608 243.877 50.944 243.909 51.264C243.941 51.584 243.957 51.8613 243.957 52.096C243.957 52.1813 243.931 52.256 243.877 52.32C243.835 52.384 243.776 52.416 243.701 52.416C243.584 52.416 243.499 52.3787 243.445 52.304C243.392 52.2187 243.344 52.128 243.301 52.032C243.216 51.84 243.12 51.6533 243.013 51.472C242.907 51.28 242.773 51.0987 242.613 50.928C242.507 50.8213 242.357 50.7093 242.165 50.592C241.984 50.464 241.749 50.3573 241.461 50.272C241.173 50.1867 240.821 50.144 240.405 50.144C239.819 50.144 239.291 50.2667 238.821 50.512C238.352 50.7467 237.957 51.0773 237.637 51.504C237.317 51.9307 237.072 52.416 236.901 52.96C236.731 53.4933 236.645 54.0533 236.645 54.64C236.645 55.376 236.731 56.0427 236.901 56.64C237.072 57.2267 237.312 57.7333 237.621 58.16C237.931 58.576 238.299 58.896 238.725 59.12C239.152 59.344 239.632 59.456 240.165 59.456C240.549 59.456 240.848 59.4027 241.061 59.296C241.285 59.1787 241.445 59.0773 241.541 58.992C241.659 58.896 241.755 58.752 241.829 58.56C241.904 58.368 241.947 58.144 241.957 57.888C241.957 57.792 241.957 57.6693 241.957 57.52C241.968 57.3707 241.973 57.2213 241.973 57.072C241.984 56.9227 241.989 56.8 241.989 56.704C241.989 56.5867 241.968 56.4853 241.925 56.4C241.893 56.304 241.824 56.2293 241.717 56.176C241.621 56.1013 241.499 56.0373 241.349 55.984C241.2 55.92 241.045 55.8773 240.885 55.856C240.736 55.824 240.613 55.8027 240.517 55.792C240.443 55.7813 240.363 55.7493 240.277 55.696C240.192 55.632 240.149 55.5573 240.149 55.472C240.149 55.3867 240.187 55.3227 240.261 55.28C240.347 55.2373 240.421 55.216 240.485 55.216C240.731 55.216 240.981 55.2213 241.237 55.232C241.504 55.2427 241.765 55.2533 242.021 55.264C242.288 55.2747 242.544 55.28 242.789 55.28C243.088 55.28 243.381 55.2693 243.669 55.248C243.968 55.2267 244.272 55.216 244.581 55.216C244.645 55.216 244.709 55.2373 244.773 55.28C244.848 55.312 244.885 55.376 244.885 55.472C244.885 55.5573 244.848 55.6267 244.773 55.68C244.699 55.7333 244.629 55.7653 244.565 55.776C244.277 55.8507 244.08 55.9467 243.973 56.064C243.877 56.1813 243.813 56.3467 243.781 56.56C243.739 56.7947 243.707 57.0027 243.685 57.184C243.675 57.3653 243.669 57.5573 243.669 57.76V58.256C243.669 58.3093 243.685 58.3573 243.717 58.4C243.76 58.4427 243.803 58.4907 243.845 58.544C243.888 58.5973 243.925 58.6507 243.957 58.704C244 58.7573 244.021 58.8107 244.021 58.864C244.021 58.928 244 58.9973 243.957 59.072C243.925 59.136 243.851 59.1787 243.733 59.2C243.659 59.2107 243.515 59.2693 243.301 59.376C243.088 59.4827 242.816 59.6053 242.485 59.744C242.165 59.872 241.787 59.984 241.349 60.08C240.923 60.176 240.443 60.224 239.909 60.224Z" fill="currentColor"/>
<path d="M256.144 60.288C256.016 60.288 255.803 60.208 255.504 60.048C255.205 59.888 254.901 59.6107 254.592 59.216C254.411 59.0133 254.187 58.768 253.92 58.48C253.664 58.1813 253.376 57.856 253.056 57.504C252.747 57.152 252.421 56.784 252.08 56.4C251.739 56.016 251.397 55.632 251.056 55.248C250.725 54.864 250.4 54.496 250.08 54.144C249.76 53.792 249.467 53.472 249.2 53.184C248.933 52.8853 248.709 52.6293 248.528 52.416C248.485 52.3627 248.437 52.32 248.384 52.288C248.341 52.2453 248.304 52.224 248.272 52.224C248.229 52.224 248.197 52.2613 248.176 52.336C248.155 52.4107 248.144 52.48 248.144 52.544C248.144 53.0347 248.144 53.616 248.144 54.288C248.155 54.96 248.16 55.6427 248.16 56.336C248.16 57.0293 248.16 57.6693 248.16 58.256C248.16 58.5867 248.256 58.8587 248.448 59.072C248.64 59.2853 248.944 59.44 249.36 59.536C249.488 59.5573 249.595 59.5947 249.68 59.648C249.776 59.6907 249.824 59.7547 249.824 59.84C249.824 59.9147 249.781 59.968 249.696 60C249.611 60.032 249.515 60.048 249.408 60.048C249.12 60.048 248.891 60.0427 248.72 60.032C248.549 60.0213 248.395 60.0107 248.256 60C248.117 59.9893 247.941 59.984 247.728 59.984C247.504 59.984 247.301 59.9893 247.12 60C246.949 60.0107 246.795 60.0213 246.656 60.032C246.517 60.0533 246.384 60.064 246.256 60.064C246.149 60.064 246.053 60.0427 245.968 60C245.883 59.968 245.84 59.92 245.84 59.856C245.84 59.7707 245.877 59.7067 245.952 59.664C246.037 59.6107 246.149 59.5627 246.288 59.52C246.565 59.4347 246.768 59.28 246.896 59.056C247.035 58.8213 247.12 58.544 247.152 58.224C247.195 57.8187 247.237 57.2907 247.28 56.64C247.323 55.9787 247.36 55.2373 247.392 54.416C247.435 53.5947 247.456 52.7467 247.456 51.872C247.456 51.3173 247.312 50.9173 247.024 50.672C246.747 50.4267 246.395 50.2293 245.968 50.08C245.893 50.0587 245.797 50.016 245.68 49.952C245.563 49.888 245.504 49.808 245.504 49.712C245.504 49.616 245.547 49.552 245.632 49.52C245.717 49.488 245.808 49.472 245.904 49.472C246.128 49.472 246.352 49.4773 246.576 49.488C246.8 49.4987 247.024 49.5093 247.248 49.52C247.483 49.52 247.723 49.5253 247.968 49.536C248.224 49.5467 248.496 49.552 248.784 49.552C248.88 49.552 248.949 49.5733 248.992 49.616C249.045 49.648 249.093 49.696 249.136 49.76C249.307 49.9627 249.525 50.2187 249.792 50.528C250.059 50.8267 250.347 51.1627 250.656 51.536C250.976 51.8987 251.307 52.2827 251.648 52.688C252 53.0933 252.347 53.4987 252.688 53.904C253.04 54.3093 253.376 54.6987 253.696 55.072C254.016 55.4347 254.304 55.7707 254.56 56.08C254.827 56.3787 255.045 56.624 255.216 56.816C255.259 56.8587 255.307 56.912 255.36 56.976C255.424 57.04 255.477 57.072 255.52 57.072C255.605 57.072 255.653 56.9813 255.664 56.8C255.664 56.5227 255.664 56.1707 255.664 55.744C255.664 55.3067 255.664 54.8267 255.664 54.304C255.675 53.7707 255.675 53.2267 255.664 52.672C255.664 52.1173 255.659 51.584 255.648 51.072C255.637 50.8053 255.525 50.5973 255.312 50.448C255.109 50.288 254.853 50.176 254.544 50.112C254.416 50.08 254.293 50.0427 254.176 50C254.069 49.9467 254.016 49.872 254.016 49.776C254.016 49.7013 254.069 49.648 254.176 49.616C254.293 49.584 254.4 49.568 254.496 49.568C254.709 49.568 254.885 49.568 255.024 49.568C255.173 49.568 255.312 49.5733 255.44 49.584C255.568 49.584 255.701 49.584 255.84 49.584C256.075 49.584 256.267 49.584 256.416 49.584C256.565 49.5733 256.725 49.5627 256.896 49.552C257.077 49.5413 257.312 49.536 257.6 49.536C257.728 49.536 257.829 49.5573 257.904 49.6C257.989 49.632 258.032 49.68 258.032 49.744C258.032 49.904 257.877 50.016 257.568 50.08C257.195 50.1547 256.928 50.256 256.768 50.384C256.619 50.512 256.539 50.7253 256.528 51.024C256.528 51.2907 256.523 51.632 256.512 52.048C256.512 52.464 256.507 52.9173 256.496 53.408C256.485 53.8987 256.469 54.4 256.448 54.912C256.437 55.424 256.427 55.9253 256.416 56.416C256.416 56.9067 256.416 57.3493 256.416 57.744C256.416 58 256.427 58.2613 256.448 58.528C256.469 58.7947 256.491 59.0347 256.512 59.248C256.544 59.4507 256.56 59.5947 256.56 59.68C256.56 59.9147 256.523 60.0747 256.448 60.16C256.373 60.2453 256.272 60.288 256.144 60.288Z" fill="currentColor"/>
</svg>
