<svg viewBox="0 0 15 11" fill="none" xmlns="http://www.w3.org/2000/svg">
<path fill-rule="evenodd" clip-rule="evenodd" d="M1 0C0.447715 0 0 0.44772 0 1V10C0 10.5523 0.447715 11 1 11H14C14.5523 11 15 10.5523 15 10V1C15 0.44772 14.5523 0 14 0H1ZM1 1H14V1.92494C13.9174 1.92486 13.8338 1.94751 13.7589 1.99505L7.5 5.96703L1.24112 1.99505C1.16621 1.94751 1.0826 1.92486 1 1.92494V1ZM1 2.90797V10H14V2.90797L7.74112 6.87995C7.59394 6.97335 7.40606 6.97335 7.25888 6.87995L1 2.90797Z" fill="currentColor"/>
</svg>
