<svg viewBox="0 0 129 74" fill="none" xmlns="http://www.w3.org/2000/svg">
<path d="M58.05 69.1739C58.05 66.5099 60.2172 64.3478 62.8875 64.3478H124.162C126.833 64.3478 129 66.5099 129 69.1739C129 71.8379 126.833 74 124.162 74H62.8875C60.2172 74 58.05 71.8379 58.05 69.1739ZM0 37C0 34.336 2.1672 32.1739 4.8375 32.1739H124.162C126.833 32.1739 129 34.336 129 37C129 39.664 126.833 41.8261 124.162 41.8261H4.8375C2.1672 41.8261 0 39.664 0 37ZM25.8 4.82609C25.8 2.16209 27.9672 0 30.6375 0H124.162C126.833 0 129 2.16209 129 4.82609C129 7.49009 126.833 9.65217 124.162 9.65217H30.6375C27.9672 9.65217 25.8 7.49009 25.8 4.82609Z" fill="currentColor"/>
</svg>
