<svg viewBox="0 0 13 13" fill="none" xmlns="http://www.w3.org/2000/svg">
<path fill-rule="evenodd" clip-rule="evenodd" d="M10.1464 0.146449C10.3417 -0.0488165 10.6583 -0.0488165 10.8535 0.146449L12.8535 2.14645C13.0488 2.34171 13.0488 2.65829 12.8535 2.85355L8.9109 6.79618C8.8349 6.87218 8.7471 6.93543 8.651 6.9835L4.72359 8.94721C4.53109 9.0435 4.29861 9.0057 4.14643 8.85355C3.99425 8.70137 3.95652 8.46889 4.05277 8.27639L6.01648 4.34897C6.06455 4.25283 6.1278 4.16507 6.2038 4.08907L10.1464 0.146449ZM10.5 1.20711L6.91091 4.79618L5.87266 6.87267L6.12731 7.12732L8.2038 6.08907L11.7929 2.5L10.5 1.20711ZM7.99998 0.999999L6.99998 2H2.9C2.47171 2 2.18056 2.00039 1.95552 2.01877C1.73631 2.03668 1.62421 2.06915 1.54601 2.10899C1.35785 2.20487 1.20487 2.35785 1.10899 2.54601C1.06915 2.62421 1.03669 2.73631 1.01878 2.95552C1.00039 3.18056 1 3.47171 1 3.9V10.1C1 10.5283 1.00039 10.8194 1.01878 11.0445C1.03669 11.2637 1.06915 11.3758 1.10899 11.454C1.20487 11.6422 1.35785 11.7951 1.54601 11.891C1.62421 11.9309 1.73631 11.9633 1.95552 11.9812C2.18056 11.9996 2.47171 12 2.9 12H9.1C9.5283 12 9.8194 11.9996 10.0445 11.9812C10.2637 11.9633 10.3758 11.9309 10.454 11.891C10.6422 11.7951 10.7951 11.6422 10.891 11.454C10.9309 11.3758 10.9633 11.2637 10.9812 11.0445C10.9996 10.8194 11 10.5283 11 10.1V5.99998L12 4.99998V10.1207C12 10.5231 12 10.8553 11.9779 11.1259C11.9549 11.407 11.9057 11.6653 11.782 11.908C11.5903 12.2843 11.2843 12.5903 10.908 12.782C10.6653 12.9057 10.407 12.9549 10.1259 12.9779C9.8553 13 9.5231 13 9.1207 13H2.87934C2.47686 13 2.14468 13 1.87409 12.9779C1.59304 12.9549 1.33469 12.9057 1.09202 12.782C0.7157 12.5903 0.40973 12.2843 0.21799 11.908C0.0943403 11.6653 0.0450604 11.407 0.0221004 11.1259C-9.61684e-06 10.8553 -9.58782e-06 10.5231 4.12183e-07 10.1207V3.87935C-9.58782e-06 3.47689 -9.61684e-06 3.14468 0.0221004 2.87409C0.0450604 2.59304 0.0943403 2.33469 0.21799 2.09202C0.40973 1.71569 0.7157 1.40973 1.09202 1.21799C1.33469 1.09434 1.59304 1.04506 1.87409 1.0221C2.14468 0.999989 2.47685 0.999989 2.87932 0.999999H7.99998Z" fill="currentColor"/>
</svg>
