<svg viewBox="0 0 11 13" fill="none" xmlns="http://www.w3.org/2000/svg">
<path fill-rule="evenodd" clip-rule="evenodd" d="M5.81825 0.18209C5.64251 0.00636047 5.35759 0.00636047 5.18185 0.18209L2.18185 3.18209C2.00611 3.35783 2.00611 3.64275 2.18185 3.81849C2.35759 3.99422 2.64251 3.99422 2.81825 3.81849L5.05005 1.58669V8.50017C5.05005 8.7487 5.25152 8.95017 5.50005 8.95017C5.74858 8.95017 5.95005 8.7487 5.95005 8.50017V1.58669L8.1819 3.81849C8.3576 3.99422 8.6425 3.99422 8.8182 3.81849C8.994 3.64275 8.994 3.35783 8.8182 3.18209L5.81825 0.18209ZM0.5 9.00018C0.77614 9.00018 1 9.22401 1 9.50021V11.0002C1 11.554 1.44565 12.0002 1.99635 12.0002H9.0012C9.5529 12.0002 10 11.553 10 11.0002V9.50021C10 9.22401 10.2239 9.00018 10.5 9.00018C10.7761 9.00018 11 9.22401 11 9.50021V11.0002C11 12.1042 10.1062 13.0002 9.0012 13.0002H1.99635C0.89019 13.0002 0 12.1032 0 11.0002V9.50021C0 9.22401 0.22386 9.00018 0.5 9.00018Z" fill="currentColor"/>
</svg>
