<svg width="1000" height="1000" viewBox="0 0 1000 1000" fill="none" xmlns="http://www.w3.org/2000/svg">
<path d="M0 0H1000V1000H0V0Z" fill="#D9D9D9"/>
<path fill-rule="evenodd" clip-rule="evenodd" d="M320.167 266.067H680.833C710.711 266.067 734.933 290.288 734.933 320.167V680.833C734.933 710.711 710.711 734.933 680.833 734.933H320.167C290.288 734.933 266.067 710.711 266.067 680.833V320.167C266.067 290.288 290.288 266.067 320.167 266.067ZM320.167 302.133C310.207 302.133 302.133 310.207 302.133 320.167V531.647L362.79 470.99C365.902 467.878 370.145 466.163 374.546 466.239C378.946 466.315 383.128 468.174 386.131 471.392L513.973 608.343L615.257 507.057C621.594 500.719 631.873 500.719 638.21 507.057L698.867 567.714V320.167C698.867 310.207 690.791 302.133 680.833 302.133H320.167ZM302.133 680.833V577.553L373.865 505.821L501.622 642.678L552.477 698.867H320.167C310.207 698.867 302.133 690.791 302.133 680.833ZM680.833 698.867H596.257L535.966 632.252L626.733 541.486L698.867 613.62V680.833C698.867 690.791 690.791 698.867 680.833 698.867ZM469.815 428.367C469.815 411.42 483.553 397.682 500.5 397.682C517.447 397.682 531.185 411.42 531.185 428.367C531.185 445.313 517.447 459.051 500.5 459.051C483.553 459.051 469.815 445.313 469.815 428.367ZM500.5 365.222C465.626 365.222 437.355 393.493 437.355 428.367C437.355 463.241 465.626 491.511 500.5 491.511C535.374 491.511 563.645 463.241 563.645 428.367C563.645 393.493 535.374 365.222 500.5 365.222Z" fill="#9D9D9D"/>
</svg>
